<svg width="100" height="100" viewBox="0 0 100 100" fill="none" xmlns="http://www.w3.org/2000/svg">
<path fill-rule="evenodd" clip-rule="evenodd" d="M4.16666 11.8251C4.16666 9.79398 4.97352 7.84605 6.40973 6.40983C7.84595 4.97362 9.79387 4.16676 11.825 4.16676H88.1666C89.1732 4.16511 90.1702 4.36202 91.1006 4.7462C92.0309 5.13039 92.8764 5.6943 93.5885 6.40566C94.3007 7.11702 94.8655 7.96186 95.2507 8.8918C95.6359 9.82174 95.8339 10.8185 95.8333 11.8251V88.1668C95.8344 89.1735 95.637 90.1706 95.2524 91.101C94.8677 92.0314 94.3034 92.8768 93.5917 93.5889C92.88 94.301 92.0349 94.8657 91.1047 95.2509C90.1746 95.636 89.1776 95.834 88.1708 95.8334H11.825C10.8189 95.8334 9.82273 95.6352 8.89331 95.2501C7.96389 94.8649 7.11945 94.3005 6.40826 93.5889C5.69706 92.8773 5.13304 92.0325 4.74842 91.1029C4.3638 90.1733 4.16611 89.177 4.16666 88.1709V11.8251ZM40.45 39.1168H52.8625V45.3501C54.6542 41.7668 59.2375 38.5418 66.125 38.5418C79.3292 38.5418 82.4583 45.6793 82.4583 58.7751V83.0334H69.0958V61.7584C69.0958 54.3001 67.3042 50.0918 62.7542 50.0918C56.4417 50.0918 53.8167 54.6293 53.8167 61.7584V83.0334H40.45V39.1168ZM17.5333 82.4626H30.9V38.5418H17.5333V82.4584V82.4626ZM32.8125 24.2168C32.8377 25.3612 32.634 26.4992 32.2135 27.5639C31.7929 28.6286 31.164 29.5986 30.3635 30.4169C29.563 31.2352 28.6071 31.8854 27.5519 32.3293C26.4967 32.7732 25.3635 33.0018 24.2187 33.0018C23.074 33.0018 21.9408 32.7732 20.8856 32.3293C19.8304 31.8854 18.8745 31.2352 18.074 30.4169C17.2735 29.5986 16.6445 28.6286 16.224 27.5639C15.8034 26.4992 15.5998 25.3612 15.625 24.2168C15.6745 21.9703 16.6016 19.8326 18.2078 18.2613C19.8141 16.69 21.9718 15.8102 24.2187 15.8102C26.4657 15.8102 28.6234 16.69 30.2296 18.2613C31.8359 19.8326 32.763 21.9703 32.8125 24.2168Z" fill="black"/>
</svg>
