<svg width="100" height="100" viewBox="0 0 100 100" fill="none" xmlns="http://www.w3.org/2000/svg">
<path d="M86.9252 67.409L90.625 53.5352V45.3125C89.0359 26.9545 73.4506 12.5 54.6875 12.5H48.4375V45.3125H25.8121L22.327 29.9281C22.0198 28.535 21.2476 27.288 20.1373 26.3923C19.027 25.4966 17.6449 25.0055 16.2184 25H3.125V31.25H16.2184L24.1236 66.1465C21.3027 66.8938 18.7474 68.4162 16.7473 70.5412C14.7471 72.6662 13.3821 75.3088 12.8067 78.1698C12.2313 81.0307 12.4687 83.9957 13.4918 86.7287C14.515 89.4617 16.2831 91.8535 18.5958 93.6333C20.9085 95.413 23.6734 96.5095 26.5773 96.7986C29.4812 97.0877 32.408 96.5577 35.0262 95.2688C37.6443 93.9799 39.8492 91.9835 41.3911 89.5059C42.9329 87.0282 43.7501 84.1682 43.75 81.25C43.75 80.7227 43.724 80.2018 43.6719 79.6875H64.1406C64.0892 80.2016 64.0632 80.7224 64.0625 81.25C64.0613 84.0209 64.797 86.7422 66.1941 89.135C67.5912 91.5279 69.5995 93.5061 72.0131 94.8671C74.4267 96.228 77.1588 96.9226 79.9294 96.8797C82.6999 96.8368 85.4092 96.058 87.7795 94.623C90.1498 93.188 92.0959 91.1485 93.4183 88.7136C94.7407 86.2786 95.3917 83.5358 95.3048 80.7663C95.2179 77.9969 94.396 75.3003 92.9235 72.9531C91.451 70.6059 89.3809 68.6925 86.9252 67.409ZM54.6875 18.75C70.0022 18.75 82.6455 30.4059 84.2117 45.3125H54.6875V18.75ZM28.125 90.625C26.2708 90.625 24.4582 90.0752 22.9165 89.045C21.3748 88.0149 20.1732 86.5507 19.4636 84.8377C18.7541 83.1246 18.5684 81.2396 18.9301 79.421C19.2919 77.6025 20.1848 75.932 21.4959 74.6209C22.807 73.3098 24.4775 72.4169 26.296 72.0551C28.1146 71.6934 29.9996 71.8791 31.7127 72.5886C33.4257 73.2982 34.8899 74.4998 35.92 76.0415C36.9502 77.5832 37.5 79.3958 37.5 81.25C37.4972 83.7355 36.5085 86.1184 34.751 87.876C32.9934 89.6335 30.6105 90.6222 28.125 90.625ZM66.1646 73.4375H41.6479C40.4732 71.4071 38.8574 69.6665 36.9198 68.3445C34.9822 67.0224 32.7723 66.1525 30.4533 65.7992L27.2281 51.5625H84.375V52.7148L80.918 65.6773C80.5087 65.6437 80.0982 65.626 79.6875 65.6244C76.9463 65.6265 74.2538 66.3495 71.8803 67.7209C69.5067 69.0923 67.5356 71.0637 66.1646 73.4375ZM79.6875 90.625C77.8333 90.625 76.0207 90.0752 74.479 89.045C72.9373 88.0149 71.7357 86.5507 71.0261 84.8377C70.3166 83.1246 70.1309 81.2396 70.4926 79.421C70.8544 77.6025 71.7473 75.932 73.0584 74.6209C74.3695 73.3098 76.04 72.4169 77.8585 72.0551C79.6771 71.6934 81.5621 71.8791 83.2752 72.5886C84.9882 73.2982 86.4524 74.4998 87.4825 76.0415C88.5127 77.5832 89.0625 79.3958 89.0625 81.25C89.0597 83.7355 88.071 86.1184 86.3135 87.876C84.5559 89.6335 82.173 90.6222 79.6875 90.625Z" fill="black"/>
</svg>
