<svg width="100" height="100" viewBox="0 0 100 100" fill="none" xmlns="http://www.w3.org/2000/svg">
<path fill-rule="evenodd" clip-rule="evenodd" d="M30.852 72.3208C45.1125 70.2375 54.9312 70.4166 69.2104 72.3937C70.2445 72.5436 71.1894 73.0626 71.8706 73.8549C72.5519 74.6472 72.9234 75.6592 72.9166 76.7041C72.9166 77.7041 72.5729 78.675 71.952 79.4333C70.87 80.7554 69.7614 82.0557 68.627 83.3333H74.1291C74.475 82.9208 74.8229 82.5 75.175 82.0729C76.4107 80.5575 77.0849 78.6616 77.0833 76.7062C77.0833 72.4875 74.0041 68.852 69.7812 68.2687C55.1645 66.2458 44.9479 66.052 30.25 68.2C25.9833 68.8229 22.9166 72.5145 22.9166 76.7625C22.9166 78.6479 23.5312 80.5125 24.6958 82.0229C25.0395 82.4687 25.3791 82.9062 25.7166 83.3354H31.0854C30.03 82.0719 29.0006 80.7869 27.9979 79.4812C27.402 78.6996 27.0805 77.7432 27.0833 76.7604C27.0833 74.5166 28.6958 72.6354 30.852 72.3208ZM50 52.0833C51.6415 52.0833 53.2669 51.76 54.7835 51.1318C56.3001 50.5036 57.6781 49.5829 58.8388 48.4221C59.9995 47.2614 60.9203 45.8834 61.5485 44.3668C62.1766 42.8503 62.5 41.2248 62.5 39.5833C62.5 37.9418 62.1766 36.3163 61.5485 34.7997C60.9203 33.2832 59.9995 31.9052 58.8388 30.7445C57.6781 29.5837 56.3001 28.663 54.7835 28.0348C53.2669 27.4066 51.6415 27.0833 50 27.0833C46.6848 27.0833 43.5053 28.4003 41.1611 30.7445C38.8169 33.0887 37.5 36.2681 37.5 39.5833C37.5 42.8985 38.8169 46.0779 41.1611 48.4221C43.5053 50.7663 46.6848 52.0833 50 52.0833ZM50 56.25C54.4202 56.25 58.6595 54.494 61.7851 51.3684C64.9107 48.2428 66.6666 44.0036 66.6666 39.5833C66.6666 35.163 64.9107 30.9238 61.7851 27.7982C58.6595 24.6726 54.4202 22.9166 50 22.9166C45.5797 22.9166 41.3405 24.6726 38.2148 27.7982C35.0892 30.9238 33.3333 35.163 33.3333 39.5833C33.3333 44.0036 35.0892 48.2428 38.2148 51.3684C41.3405 54.494 45.5797 56.25 50 56.25Z" fill="black"/>
<path fill-rule="evenodd" clip-rule="evenodd" d="M50 87.5C70.7104 87.5 87.5 70.7104 87.5 50C87.5 29.2896 70.7104 12.5 50 12.5C29.2896 12.5 12.5 29.2896 12.5 50C12.5 70.7104 29.2896 87.5 50 87.5ZM50 91.6667C73.0125 91.6667 91.6667 73.0125 91.6667 50C91.6667 26.9875 73.0125 8.33331 50 8.33331C26.9875 8.33331 8.33331 26.9875 8.33331 50C8.33331 73.0125 26.9875 91.6667 50 91.6667Z" fill="black"/>
</svg>
