<svg width="100" height="100" viewBox="0 0 100 100" fill="none" xmlns="http://www.w3.org/2000/svg">
<path fill-rule="evenodd" clip-rule="evenodd" d="M20.8333 12.6C20.8333 12.6 21.8437 14.3708 23.1708 17.0541C24.9979 20.7416 27.4271 26.1562 28.6604 31.0562C28.8646 31.8666 29.0354 32.6604 29.1667 33.4312V64.6812H33.3333V53.5416C32 51.0604 31.25 48.1083 31.25 44.7416C31.25 37.2729 37.8646 31.8479 43.4083 27.3041C44.6847 26.2791 45.9331 25.2197 47.1521 24.1271C47.4167 23.8833 47.6729 23.6437 47.9167 23.4041V16.7666H52.0833V23.4041C52.3271 23.6437 52.5833 23.8833 52.8479 24.1271C53.9583 25.1458 55.2437 26.2 56.5917 27.3041C62.1333 31.8479 68.75 37.2729 68.75 44.7416C68.75 48.1083 68 51.0604 66.6667 53.5416V64.6833H70.8333V33.4333C70.9458 32.675 71.1063 31.8812 71.3083 31.0646C72.475 26.3291 74.9646 20.8146 76.8333 17.0521C78.1562 14.3854 79.1667 12.6 79.1667 12.6C79.1667 12.6 80.1771 14.3708 81.5042 17.0541C83.3313 20.7416 85.7604 26.1562 86.9937 31.0562C87.1979 31.8666 87.3687 32.6604 87.5 33.4312V87.5979H12.5V33.4312C12.6125 32.675 12.7729 31.8812 12.975 31.0646C14.1417 26.3291 16.6312 20.8146 18.5 17.0521C19.8229 14.3854 20.8333 12.6 20.8333 12.6ZM58.3333 83.4333V82.3333C58.3333 81.5594 58.1177 80.8007 57.7107 80.1424C57.3038 79.4841 56.7215 78.9522 56.0292 78.6062L50 75.5916L43.9708 78.6062C43.2785 78.9522 42.6962 79.4841 42.2893 80.1424C41.8823 80.8007 41.6667 81.5594 41.6667 82.3333V83.4333H58.3333ZM62.5 83.4333H70.8333V68.85H29.1667V83.4333H37.5V82.3333C37.4999 80.7856 37.9307 79.2685 38.7443 77.9519C39.5579 76.6353 40.722 75.5713 42.1062 74.8791L50 70.9333L57.8937 74.8791C59.278 75.5713 60.4421 76.6353 61.2557 77.9519C62.0693 79.2685 62.5001 80.7856 62.5 82.3333V83.4333ZM75 34.4083C76.6833 34.0021 77.925 33.7979 79.1667 33.7979C80.4083 33.7979 81.65 34.0021 83.3333 34.4083V83.4333H75V34.4083ZM16.6667 34.4083V83.4333H25V34.4083C23.3167 34.0021 22.075 33.7979 20.8333 33.7979C19.5917 33.7979 18.35 34.0021 16.6667 34.4083ZM17.6167 29.9458C18.4417 27.3208 19.6208 24.4604 20.8312 21.8291C22.0042 24.3958 23.1688 27.2396 24.0146 29.9396C22.9655 29.7421 21.9008 29.6389 20.8333 29.6312C19.775 29.6312 18.7292 29.7437 17.6167 29.9437V29.9458ZM37.3562 52.1833C36.1437 50.2125 35.4167 47.7416 35.4167 44.7416C35.4167 42.3229 36.4687 40.0083 38.4708 37.5708C40.5125 35.0854 43.2167 32.85 46.05 30.5271L46.1063 30.4791C47.425 29.3979 48.7937 28.2771 50 27.1687C51.2062 28.2771 52.575 29.3979 53.8937 30.4812L53.95 30.5271C56.7833 32.85 59.4896 35.0854 61.5292 37.5687C63.5292 40.0062 64.5833 42.3229 64.5833 44.7416C64.5833 47.7416 63.8542 50.2125 62.6458 52.1833H37.3542H37.3562ZM37.5 56.35V64.6833H39.5833V62.6C39.5833 62.0474 39.8028 61.5175 40.1935 61.1268C40.5842 60.7361 41.1141 60.5166 41.6667 60.5166C42.2192 60.5166 42.7491 60.7361 43.1398 61.1268C43.5305 61.5175 43.75 62.0474 43.75 62.6V64.6833H47.9167V62.6C47.9167 62.0474 48.1362 61.5175 48.5269 61.1268C48.9176 60.7361 49.4475 60.5166 50 60.5166C50.5525 60.5166 51.0824 60.7361 51.4731 61.1268C51.8638 61.5175 52.0833 62.0474 52.0833 62.6V64.6833H56.25V62.6C56.25 62.0474 56.4695 61.5175 56.8602 61.1268C57.2509 60.7361 57.7808 60.5166 58.3333 60.5166C58.8859 60.5166 59.4158 60.7361 59.8065 61.1268C60.1972 61.5175 60.4167 62.0474 60.4167 62.6V64.6833H62.5V56.35H37.5ZM79.1667 21.8291C77.9542 24.4604 76.775 27.3208 75.95 29.9458C77.0106 29.7444 78.0872 29.6392 79.1667 29.6312C80.2125 29.6312 81.25 29.7416 82.3479 29.9375C81.5021 27.2396 80.3375 24.3958 79.1646 21.8291H79.1667Z" fill="black"/>
</svg>
